# xmcd CD database file
#
# Track frame offsets:
#	150
#	13989
#	30047
#	49073
#	65204
#	79297
#	98274
#	112180
#	128069
#	141107
#	156560
#	171448
#	186195
#	202501
#	217096
#	228684
#
# Disc length: 3261 seconds
#
# Revision: 0
# Processed by: cddbd v1.5.2PL0 Copyright (c) Steve Scherf et al.
# Submitted via: CDex 1.51
#
DISCID=e30cbb10
DTITLE=Blue Street Jazz Band - Sex, Drugs and Dixieland
DYEAR=2005
DGENRE=Jazz
TTITLE0=Struttin' With Some Barbeque - Hardin
TTITLE1=Black and Tan Fantasy - Ellington, Miley
TTITLE2=The Wang Wang Blues - Miller, Johnson and Busse
TTITLE3=Make Me a Pallet On The Floor - Traditional
TTITLE4=Alabamy Bound - Henderson
TTITLE5=Don't Let The Sun Catch You Crying - Joe Greene
TTITLE6=Lay Your Racket - Bechet, Maxey
TTITLE7=Diga, Diga Doo - words by Fields, Music by McHugh
TTITLE8=You Took Advantage Of Me - Rogers and Hart
TTITLE9=Sweet Patootie - Bogan, Williams, Alexander
TTITLE10=If You're a Viper - Waller
TTITLE11=Winin' Boy - Morton
TTITLE12=Gimme a Pigfoot - Wesley "Sox" Wilson
TTITLE13=Ory Ala Turk - Ruffner
TTITLE14=Hey Mary Wanna? - Ruffner
TTITLE15=I Think I'll Just Sit Here and Drink - Haggard
EXTD=YEAR: 2005
EXTT0=
EXTT1=
EXTT2=
EXTT3=
EXTT4=
EXTT5=
EXTT6=
EXTT7=
EXTT8=
EXTT9=
EXTT10=
EXTT11=
EXTT12=
EXTT13=
EXTT14=
EXTT15=
PLAYORDER=
